<?xml version="1.0" encoding="UTF-8" standalone="no"?>
<!-- Created with Inkscape (http://www.inkscape.org/) -->

<svg
   width="40.929375mm"
   height="83.987526mm"
   viewBox="0 0 40.929375 83.987526"
   version="1.1"
   id="svg1"
   xml:space="preserve"
   xmlns="http://www.w3.org/2000/svg"
   xmlns:svg="http://www.w3.org/2000/svg"><defs
     id="defs1" /><g
     id="layer1"
     transform="translate(-134.90308,-49.536003)"><path
       d="m 150.87175,133.0937 c -2.32174,-0.65424 -2.75258,-0.91852 -2.65616,-1.62928 0.0566,-0.41744 0.48016,-0.86508 1.30235,-1.37644 1.16141,-0.72236 1.21553,-0.8078 1.15638,-1.82579 -0.0341,-0.58739 -0.42544,-2.49711 -0.86959,-4.24384 -1.28111,-5.03839 -1.46314,-6.43454 -1.21853,-9.34606 0.3071,-3.65529 0.25043,-4.27619 -0.66577,-7.2955 -1.12345,-3.70227 -1.46203,-6.10673 -1.46225,-10.384492 -2e-4,-3.80452 0.33246,-6.899158 1.07047,-9.9583 0.57566,-2.386197 0.36468,-7.61679 -0.38267,-9.487235 l -0.51578,-1.290897 -0.3329,1.483056 c -0.18309,0.815681 -0.43348,2.571296 -0.55641,3.901367 -0.1842,1.992989 -0.44352,2.938551 -1.47443,5.376305 -0.69272,1.638058 -1.42695,3.914834 -1.64542,5.102284 -0.33846,1.83968 -0.86856,3.51904 -1.62851,5.15913 -0.28974,0.6253 -2.00293,1.39955 -3.1885,1.44098 -1.46345,0.0511 -1.91514,-0.49784 -1.73552,-2.10938 0.12539,-1.12494 0.093,-1.21135 -0.44537,-1.18658 -0.62412,0.0287 -0.89956,-0.54071 -0.59644,-1.23305 0.0967,-0.22079 0.18559,-0.45484 0.19761,-0.5201 0.077,-0.41821 1.52334,-2.15243 2.38316,-2.85758 0.94136,-0.772022 1.03918,-0.974789 1.20211,-2.491818 0.49793,-4.636086 0.78079,-6.253166 1.26221,-7.21584 0.39326,-0.786393 0.59006,-1.966037 0.77203,-4.627652 0.13432,-1.964718 0.37422,-3.945281 0.53311,-4.401252 0.15888,-0.45597 0.28888,-1.52796 0.28888,-2.382198 0,-2.576425 1.70661,-4.650217 4.19683,-5.099805 0.44676,-0.08066 2.00026,-0.583439 3.45222,-1.11729 l 2.63994,-0.970638 -0.018,-0.85206 c -0.0103,-0.489247 -0.35528,-1.357313 -0.81011,-2.038637 -1.51099,-2.26344 -1.50159,-2.197064 -0.81638,-5.767553 0.15789,-0.822732 0.42495,-1.730463 0.59347,-2.017182 1.57209,-2.674759 5.62198,-3.085209 8.27092,-0.838245 0.71532,0.606777 0.88636,0.967613 1.03478,2.18314 0.0978,0.800918 0.35436,1.797381 0.57013,2.214361 0.45003,0.869681 0.26454,2.512661 -0.33272,2.947115 -0.93833,0.682546 -1.90608,3.688839 -1.3456,4.180084 0.3162,0.277137 4.71875,1.916232 5.60537,2.086911 2.79473,0.537999 4.41447,2.425724 4.37368,5.097276 -0.013,0.848403 0.14841,2.066502 0.35859,2.706888 0.21019,0.640386 0.45498,2.509245 0.54399,4.153021 0.1184,2.186637 0.33522,3.466329 0.80794,4.768549 0.53816,1.482457 1.20039,6.021542 1.20039,8.227725 0,0.203754 0.47965,0.758595 1.0659,1.23298 1.47414,1.19286 3.07848,3.72436 2.72607,4.30149 -0.15596,0.25541 -0.46136,0.38874 -0.74235,0.32408 -0.42369,-0.0975 -0.46718,0.0496 -0.38671,1.30798 0.0825,1.29065 0.0305,1.45239 -0.58054,1.80328 -0.75336,0.43265 -1.59676,0.33179 -3.23312,-0.38663 -0.55844,-0.24518 -1.01621,-0.47031 -1.01724,-0.50029 -0.001,-0.03 -0.31049,-0.85151 -0.68766,-1.82563 -0.37718,-0.97412 -0.81092,-2.55973 -0.96388,-3.52358 -0.15295,-0.96386 -0.87976,-3.248403 -1.61513,-5.076771 -1.09748,-2.728669 -1.38279,-3.781139 -1.59232,-5.873955 -0.1404,-1.402309 -0.40616,-3.073001 -0.59058,-3.712649 l -0.3353,-1.162997 -0.47375,1.395166 c -0.81386,2.396791 -0.92654,6.235523 -0.276,9.402687 1.48615,7.235339 1.38058,14.028321 -0.30132,19.388101 -0.8649,2.75623 -0.87748,2.8693 -0.78919,7.09147 0.0956,4.56915 -0.14446,6.37455 -1.47025,11.05927 -0.64637,2.28397 -0.82324,4.11958 -0.44298,4.59718 0.10941,0.13741 0.64955,0.48979 1.20031,0.78306 2.03073,1.08132 1.64434,2.00552 -1.16716,2.79171 -2.18859,0.61201 -4.01138,0.72535 -4.51842,0.28094 -0.25271,-0.22149 -0.39712,-0.22149 -0.64983,0 -0.46451,0.40713 -2.54028,0.32931 -4.27806,-0.16039 z m 3.93347,-0.59935 c 0.38948,-0.521 0.38421,-0.73989 -0.0615,-2.55114 -0.39966,-1.6243 -0.47037,-2.81499 -0.39248,-6.6089 0.14116,-6.87619 0.13728,-8.613 -0.0263,-11.74712 -0.0817,-1.56628 -0.0473,-3.9691 0.0764,-5.3396 0.12375,-1.37049 0.26444,-4.12186 0.31264,-6.11414 0.0764,-3.156472 0.0351,-3.602412 -0.32045,-3.467412 -1.36002,0.51632 -4.69619,0.2711 -6.83872,-0.50266 -0.4227,-0.15266 -0.47383,-0.005 -0.47383,1.37167 0,2.783562 0.54443,6.272222 1.49512,9.580612 l 0.93499,3.25375 -0.15558,4.16862 c -0.1652,4.42631 -0.17391,4.36574 1.64103,11.40675 0.21869,0.8484 0.4019,2.08354 0.40713,2.74475 0.009,1.15191 -0.0343,1.22381 -1.03835,1.71839 -2.13226,1.05036 -2.03503,1.36014 0.64172,2.04458 0.89352,0.22847 1.74642,0.45114 1.89534,0.49483 0.7988,0.23435 1.51668,0.0634 1.90275,-0.45298 z m -4.20423,-21.54731 c 0,-0.28987 1.91774,-0.50306 2.21123,-0.24582 0.18676,0.16368 -0.12491,0.26932 -0.96789,0.32809 -0.68384,0.0477 -1.24334,0.0106 -1.24334,-0.0823 z m 9.08572,21.55698 c 1.30153,-0.33899 2.1822,-0.69878 2.23009,-0.91108 0.0439,-0.19467 -0.41292,-0.63627 -1.02626,-0.99202 -0.60799,-0.35264 -1.23181,-0.93048 -1.38628,-1.28409 -0.33371,-0.76393 -0.11933,-2.54198 0.57264,-4.74948 1.32208,-4.21763 1.70728,-7.38459 1.33343,-10.96298 l -0.30992,-2.96644 0.95665,-3.22036 c 0.52615,-1.7712 1.08802,-4.04826 1.2486,-5.06013 0.30338,-1.91181 0.40318,-6.314402 0.14312,-6.314402 -0.0819,0 -0.53107,0.17325 -0.99826,0.38499 -0.92255,0.41814 -4.40092,0.57899 -5.68967,0.2631 l -0.7446,-0.1825 -0.002,2.55566 c -0.001,1.405612 0.14198,4.657692 0.31814,7.226842 0.24207,3.5305 0.24492,5.35598 0.0117,7.47544 -0.21511,1.95473 -0.2279,3.52316 -0.0422,5.1774 0.41533,3.70029 0.33371,8.46033 -0.18564,10.82612 -0.42704,1.94532 -0.42709,2.11529 -8.5e-4,2.68546 0.55946,0.74836 0.8682,0.75255 3.5715,0.0485 z m -1.03619,-21.44598 c -0.56157,-0.0514 -0.95037,-0.19359 -0.864,-0.31608 0.30154,-0.42763 2.29117,-0.1868 2.29117,0.27733 0,0.11656 -0.0914,0.19398 -0.20307,0.17203 -0.11169,-0.0219 -0.66254,-0.0819 -1.2241,-0.13328 z m -2.8178,14.10545 c 0.0262,-1.98498 -0.0588,-5.05074 -0.18873,-6.81281 -0.15229,-2.06519 -0.13581,-3.9628 0.0464,-5.3396 0.20756,-1.56845 0.19085,-3.2391 -0.0629,-6.28886 -0.33823,-4.06525 -0.34748,-4.10537 -0.4378,-1.89852 -0.0508,1.23997 -0.13385,5.77863 -0.18467,10.08591 -0.0508,4.30727 -0.11476,8.52555 -0.14209,9.37396 -0.0273,0.8484 0.0508,2.39061 0.17363,3.42712 0.34669,2.92565 0.74069,1.66512 0.79618,-2.5472 z M 138.45223,96.534018 c 0.26516,-0.82415 0.54839,-1.55655 0.62941,-1.62756 0.29541,-0.25891 0.13679,0.86572 -0.26173,1.85571 -0.22497,0.55886 -0.34478,1.07243 -0.26625,1.14126 0.27943,0.24491 0.71838,-0.39179 1.0459,-1.51707 0.18281,-0.6281 0.46667,-1.18123 0.6308,-1.22918 0.19538,-0.0571 0.16377,0.25534 -0.0915,0.90487 -0.21448,0.54562 -0.34382,1.11163 -0.28742,1.25779 0.29056,0.75297 2.08518,-3.96719 2.08518,-5.48437 0,-0.74645 0.94653,-3.499593 2.14335,-6.234317 0.32062,-0.732629 0.75095,-2.658668 0.98092,-4.390336 0.22533,-1.696806 0.47004,-3.256443 0.54379,-3.46586 0.42802,-1.215318 0.55171,-3.656591 0.22577,-4.456027 -0.39594,-0.97112 -0.47762,-1.926705 -0.16471,-1.926705 0.11507,0 0.33865,0.453866 0.49686,1.008591 0.15821,0.554725 0.72607,2.30201 1.26192,3.882857 0.89141,2.629811 0.97899,3.154584 1.0298,6.170202 0.0305,1.812765 -0.0345,3.794167 -0.14462,4.403117 l -0.20015,1.107182 1.5842,0.198053 c 2.02626,0.253319 8.89703,0.256311 11.22445,0.0049 l 1.78812,-0.193166 -0.21944,-0.993411 c -0.1207,-0.546377 -0.22476,-2.449855 -0.23124,-4.229952 -0.0101,-2.784618 0.0849,-3.530192 0.68052,-5.339598 1.31067,-3.981416 2.08575,-6.03613 2.22945,-5.910186 0.0792,0.06943 -0.0165,0.871835 -0.21267,1.783121 -0.32195,1.495533 -0.29984,1.95252 0.22707,4.692747 0.32106,1.669725 0.58616,3.567792 0.5891,4.217925 0.003,0.711789 0.33564,1.984578 0.83557,3.199243 1.56553,3.803671 2.0746,5.34147 2.23898,6.76349 0.19175,1.65877 1.0589,4.19988 1.68644,4.94197 0.43444,0.51373 0.43578,0.51305 0.272,-0.13633 -0.0905,-0.35894 -0.23874,-0.9196 -0.32934,-1.24591 -0.0906,-0.3263 -0.0585,-0.59328 0.0713,-0.59328 0.12982,0 0.38649,0.55511 0.57037,1.23359 0.18389,0.67848 0.45438,1.33881 0.60109,1.4674 0.52293,0.45833 0.60068,-0.0822 0.17086,-1.18786 -0.50591,-1.30134 -0.53103,-1.51313 -0.17946,-1.51313 0.14142,0 0.40155,0.64335 0.57805,1.42967 0.30256,1.3479 0.63043,1.87385 0.97815,1.56909 0.084,-0.0736 -0.0511,-0.84514 -0.30025,-1.71447 -0.24915,-0.86933 -0.39032,-1.63553 -0.31371,-1.70267 0.19161,-0.16794 0.65902,0.96292 0.86529,2.09352 0.0939,0.51443 0.27692,0.93533 0.4068,0.93533 0.32422,0 0.28374,-0.56523 -0.16998,-2.37316 -0.52391,-2.08758 -0.50689,-2.13909 0.39259,-1.18809 0.4313,0.45599 0.85791,0.76445 0.94804,0.68546 0.32924,-0.28857 -1.26056,-2.59906 -2.28471,-3.32042 -0.57924,-0.40799 -1.11804,-0.889994 -1.19735,-1.071119 -0.0793,-0.181128 -0.33966,-2.010722 -0.57858,-4.065766 -0.29674,-2.552354 -0.64247,-4.248565 -1.09099,-5.352466 -0.52641,-1.295615 -0.65893,-2.095506 -0.66838,-4.034363 -0.006,-1.330087 -0.13713,-2.898904 -0.29032,-3.48626 -0.15319,-0.587355 -0.36169,-2.029047 -0.46335,-3.203758 -0.28789,-3.326977 -1.10213,-4.28007 -4.44815,-5.206711 -0.63213,-0.175059 -2.06314,-0.644122 -3.18004,-1.042362 -1.1169,-0.39824 -2.21925,-0.772033 -2.44966,-0.830651 -0.34151,-0.08688 -0.39014,-0.370656 -0.2631,-1.53527 l 0.15585,-1.428693 -0.68458,0.303146 c -1.48199,0.656259 -2.85896,0.656475 -4.70567,7.35e-4 -0.45794,-0.162608 -0.49298,-0.06436 -0.40615,1.138772 l 0.095,1.316734 -2.70763,0.939815 c -1.48919,0.516899 -3.31684,1.12865 -4.06144,1.359448 -2.50074,0.775138 -3.89553,2.614325 -3.5685,4.705492 0.0967,0.618391 -0.002,1.537112 -0.2481,2.313796 -0.22467,0.708491 -0.50287,2.836648 -0.61823,4.729239 -0.15169,2.488764 -0.33691,3.654306 -0.66926,4.211565 -0.44513,0.746348 -0.65526,1.882724 -1.25216,6.771681 -0.30819,2.524192 -0.51245,2.974166 -1.59805,3.520246 -0.77268,0.38868 -2.80119,3.43041 -2.16555,3.24724 0.20481,-0.059 0.65791,-0.47286 1.00689,-0.91963 l 0.6345,-0.81231 -0.093,1.06792 c -0.0511,0.58736 -0.1661,1.12132 -0.25546,1.18658 -0.26506,0.19356 -0.4812,2.12582 -0.25171,2.25014 0.20985,0.11367 0.63334,-1.44304 0.64979,-2.38857 0.005,-0.27193 0.16688,-0.49441 0.36034,-0.49441 0.44426,0 0.43792,0.21175 -0.0544,1.81942 -0.48553,1.58545 -0.49323,1.7262 -0.0879,1.60778 0.17504,-0.0511 0.53521,-0.76729 0.80036,-1.59143 z m 16.86195,-15.204545 c 0,-2.153638 0.0411,-3.034672 0.0912,-1.957853 0.0502,1.076819 0.0502,2.838886 0,3.915705 -0.0502,1.076819 -0.0912,0.195786 -0.0912,-1.957852 z m -12.97146,1.186577 c -0.0998,-0.141508 0.22815,-0.237315 0.81229,-0.237315 0.58414,0 0.91207,0.09581 0.81229,0.237315 -0.092,0.130523 -0.45757,0.237315 -0.81229,0.237315 -0.35472,0 -0.72025,-0.106792 -0.81229,-0.237315 z m 24.36866,0 c -0.0998,-0.141508 0.22815,-0.237315 0.81229,-0.237315 0.58414,0 0.91207,0.09581 0.81229,0.237315 -0.092,0.130523 -0.45757,0.237315 -0.81229,0.237315 -0.35472,0 -0.72025,-0.106792 -0.81229,-0.237315 z m -13.66452,-7.400659 c -0.005,-0.0894 0.12435,-0.463168 0.28735,-0.830604 0.16299,-0.367437 0.38276,-1.629195 0.48837,-2.803906 l 0.19202,-2.135839 0.21956,1.597687 c 0.25992,1.891285 0.063,3.029859 -0.65442,3.784306 -0.28813,0.302991 -0.52792,0.477751 -0.53288,0.388356 z m 3.95902,-0.627424 c -0.34395,-0.333115 -0.44811,-0.909043 -0.44811,-2.477807 0,-1.1241 0.12185,-2.109819 0.27077,-2.190487 0.172,-0.09317 0.27076,0.5552 0.27076,1.777645 0,1.260742 0.14245,2.165755 0.4131,2.624476 0.46168,0.782509 0.17965,0.930717 -0.50652,0.266173 z m -2.666,21.647871 c 0.35749,-0.47001 1.16419,-0.56152 1.78864,-0.20291 0.85186,0.48921 3.82277,0.70097 5.20966,0.37133 0.61881,-0.14708 1.40296,-0.46461 1.74255,-0.70563 l 0.61743,-0.4382 -0.38873,-3.29642 -0.38873,-3.296414 -1.08305,0.03602 c -0.59568,0.01981 -2.66702,0.114727 -4.60297,0.210923 -2.29651,0.114112 -4.49377,0.07533 -6.32184,-0.111591 -1.54105,-0.157571 -2.86084,-0.234846 -2.93286,-0.171723 -0.13995,0.122667 -0.89515,5.174665 -0.89231,5.969265 0.003,0.77862 0.39251,1.09749 1.92356,1.57383 1.56463,0.48679 4.97524,0.52617 5.32865,0.0615 z m 3.47228,-36.13785 c 1.45497,-0.942827 1.72519,-1.625793 1.7636,-4.45737 0.0448,-3.29981 -0.39415,-4.245804 -2.29244,-4.94098 -1.96824,-0.720794 -3.92212,-0.375156 -5.32852,0.942605 -0.63,0.590301 -0.68313,0.829067 -0.76681,3.446049 -0.0728,2.276046 -0.002,2.974303 0.37183,3.664654 0.47268,0.873044 1.46205,1.635134 2.4257,1.868469 1.09723,0.265679 3.01335,0.0036 3.82664,-0.523427 z m -7.2943,-3.760109 c -0.0686,-0.2309 -0.12933,-0.09944 -0.13485,0.292128 -0.005,0.39157 0.0507,0.580489 0.12482,0.419818 0.0742,-0.16067 0.0787,-0.481046 0.01,-0.711946 z m 9.74647,-0.241832 c -0.0681,-0.228416 -0.12382,-0.04153 -0.12382,0.415302 0,0.456832 0.0557,0.643718 0.12382,0.415302 0.0681,-0.228416 0.0681,-0.602188 0,-0.830604 z"
       style="fill:#000000"
       id="path1-14" /></g></svg>
