<?xml version="1.0" encoding="UTF-8" standalone="no"?>
<!-- Created with Inkscape (http://www.inkscape.org/) -->

<svg
   width="40.706001mm"
   height="84.605995mm"
   viewBox="0 0 40.706001 84.605995"
   version="1.1"
   id="svg1"
   xml:space="preserve"
   xmlns="http://www.w3.org/2000/svg"
   xmlns:svg="http://www.w3.org/2000/svg">
   <defs
   id="defs1" />
   <g
   id="layer1"
   transform="matrix(1.2078408,0,0,1.0097646,-74.116171,-142.05)">
     <path
   fill="#9d65ea"
   d="m 74.672933,224.24678 c -2.54829,-0.52549 -2.76285,-1.07527 -1.26101,-3.23116 1.10948,-1.59267 1.12047,-1.6307 0.97983,-3.3906 -0.0782,-0.97893 -0.44711,-2.79439 -0.81972,-4.03436 -1.34292,-4.46897 -1.60105,-6.25609 -1.43967,-9.96725 0.17188,-3.95253 -0.24807,-7.0886 -1.9703,-14.71356 -1.32791,-5.87916 -0.87137,-9.71377 1.72353,-14.47625 0.79596,-1.46084 0.83746,-1.67791 0.78347,-4.09804 -0.0314,-1.40551 -0.17996,-2.74041 -0.33022,-2.96644 -0.22674,-0.34106 -0.27461,-0.28683 -0.28144,0.31881 -0.0194,1.71804 -1.20063,6.41461 -2.45054,9.74326 -0.74161,1.97498 -1.34799,3.84384 -1.34752,4.15302 4.7e-4,0.30918 -0.26675,1.35345 -0.59381,2.3206 -0.86832,2.56762 -2.16888,3.58708 -4.28078,3.35554 -0.77751,-0.0853 -1.13462,-0.7916 -0.98564,-1.94961 0.12241,-0.9516 0.0596,-1.15553 -0.44707,-1.45036 l -0.58951,-0.34307 0.765,-1.27877 c 0.42074,-0.70332 1.25354,-1.67659 1.85067,-2.16283 1.04997,-0.85499 1.1027,-0.97206 1.60338,-3.55973 0.28474,-1.47162 0.82322,-3.61101 1.19664,-4.7542 0.43644,-1.33615 0.87322,-3.75027 1.2229,-6.75914 0.29919,-2.57434 0.67949,-5.07704 0.84511,-5.56155 0.51801,-1.51539 1.68746,-2.51738 3.42373,-2.93344 2.6944,-0.64568 3.21086,-0.9285 3.41206,-1.86852 0.19667,-0.91881 -0.0237,-1.44216 -0.90015,-2.13732 -0.31163,-0.24719 -0.56661,-0.58935 -0.56661,-0.76036 0,-0.17102 -0.37782,-0.6881 -0.83961,-1.14908 -0.76072,-0.75938 -0.82451,-0.94414 -0.67877,-1.96611 0.0885,-0.62038 0.23109,-1.71532 0.31694,-2.4332 0.24758,-2.07027 1.72819,-4.48198 3.14617,-5.12467 1.16886,-0.52977 3.43078,-0.52119 4.47019,0.017 1.52872,0.79149 3.12728,3.92694 3.02755,5.93832 -0.0129,0.26104 0.13481,0.81424 0.32834,1.22933 0.32685,0.70103 0.29039,0.8414 -0.51264,1.97362 -0.47548,0.67041 -0.86451,1.3149 -0.86451,1.43221 0,0.11731 -0.37284,0.58547 -0.82852,1.04035 -0.69597,0.69475 -0.81509,0.99029 -0.7446,1.84745 l 0.0839,1.02039 2.12996,0.60994 c 4.28907,1.22823 4.57058,1.66887 5.34057,8.35942 0.36711,3.1898 0.82134,5.70854 1.3569,7.52407 0.44279,1.50102 0.98715,3.72032 1.20968,4.93178 0.38417,2.09134 0.45998,2.2465 1.50002,3.07005 1.06687,0.84478 2.40716,2.7847 2.40716,3.48409 0,0.19133 -0.21323,0.40703 -0.47384,0.47933 -0.39019,0.10827 -0.45778,0.35753 -0.38291,1.41217 0.0775,1.09135 0.005,1.33331 -0.48862,1.63648 -0.65929,0.40475 -2.02204,0.23464 -3.10565,-0.38766 -0.72961,-0.41901 -1.68546,-2.43415 -2.09735,-4.42168 -0.34125,-1.6467 -1.03223,-3.92161 -1.49535,-4.92316 -0.19586,-0.42358 -0.35953,-0.82256 -0.36371,-0.88663 -0.004,-0.0641 -0.19742,-0.57184 -0.42944,-1.12838 -0.23202,-0.55654 -0.75779,-2.72056 -1.16839,-4.80894 l -0.74652,-3.79705 -0.1965,1.77987 c -0.38907,3.52414 -0.35508,3.74626 1.00266,6.5521 2.50252,5.17162 2.63276,7.65264 0.84664,16.12795 -1.19409,5.66609 -1.25594,6.17757 -1.4615,12.08666 -0.20151,5.79259 -0.26666,6.35175 -1.06451,9.13665 -1.08366,3.78251 -1.44621,5.62897 -1.28319,6.53534 0.0713,0.3966 0.56768,1.35773 1.10299,2.13583 1.14901,1.67017 1.20082,2.10452 0.31192,2.61501 -0.9405,0.54011 -4.10641,0.98826 -4.69755,0.66495 -0.26036,-0.1424 -0.69685,-0.17147 -1.00263,-0.0668 -0.70232,0.24044 -1.90571,0.22476 -3.19763,-0.0416 z m 1.70844,-0.92619 c 0,-0.26105 0.12184,-0.47463 0.27076,-0.47463 0.14892,0 0.27076,0.21358 0.27076,0.47463 0,0.75331 0.80866,0.58085 0.83459,-0.17799 0.0899,-2.6322 -0.11092,-15.32807 -0.27122,-17.14604 -0.10934,-1.23997 -0.10117,-3.4826 0.0182,-4.98362 0.25238,-3.17452 0.41135,-12.84286 0.2661,-16.18401 l -0.10003,-2.30105 -1.1184,-0.65817 c -1.66593,-0.98038 -3.65493,-1.74533 -4.93947,-1.89964 l -1.14069,-0.13704 -0.19607,1.37541 c -0.2839,1.99157 0.0228,5.23814 0.82857,8.76933 1.3975,6.12477 1.7599,8.87296 1.74336,13.2205 -0.0172,4.5278 0.19943,6.12244 1.36912,10.07655 0.43124,1.45784 0.86097,3.43349 0.95493,4.39034 0.16131,1.64258 0.12327,1.81567 -0.68119,3.09979 -0.46862,0.74804 -0.96598,1.4218 -1.10524,1.49723 -0.44056,0.23864 -0.29276,0.88518 0.167,0.73054 0.23111,-0.0777 0.35097,-0.0431 0.26635,0.0769 -0.0846,0.12001 -0.0385,0.28072 0.10261,0.35713 0.14105,0.0764 0.34104,0.019 0.4444,-0.1276 0.13321,-0.18891 0.25693,-0.17276 0.42486,0.0555 0.19644,0.26698 0.28246,0.26117 0.50353,-0.034 0.22825,-0.30475 0.26721,-0.29621 0.27076,0.0593 0.002,0.22841 0.18691,0.4153 0.41029,0.4153 0.22564,0 0.40615,-0.21095 0.40615,-0.47463 z m -1.55689,-21.6161 c -0.98261,-0.32521 -0.71129,-0.67552 0.40615,-0.52439 1.25915,0.17031 1.31912,0.21292 0.70009,0.49751 -0.28929,0.133 -0.75164,0.14423 -1.10624,0.0269 z m 4.94142,21.6161 c -0.0945,-0.26105 -0.05,-0.47463 0.0989,-0.47463 0.14892,0 0.34811,0.21358 0.44264,0.47463 0.23202,0.64072 0.67461,0.60247 0.6865,-0.0593 l 0.01,-0.53396 0.36024,0.56975 c 0.34425,0.54447 0.3735,0.54974 0.65908,0.11866 0.16436,-0.2481 0.30254,-0.3167 0.30707,-0.15244 0.007,0.23924 0.11596,0.23969 0.54976,0.002 0.7207,-0.39449 0.70204,-0.48186 -0.46152,-2.16067 -0.91467,-1.3197 -0.99795,-1.58381 -0.94521,-2.99748 0.0318,-0.85265 0.42496,-2.8564 0.87367,-4.45277 1.35629,-4.82524 1.4106,-5.21638 1.47515,-10.62448 0.0631,-5.28619 0.44782,-8.06983 1.93516,-14.00161 0.48113,-1.91886 0.80224,-7.01147 0.52405,-8.31117 -0.18929,-0.88437 -0.19099,-0.88533 -1.32348,-0.74928 -1.48392,0.17827 -3.86654,1.12693 -5.05621,2.01317 l -0.94767,0.70597 v 7.56099 c 0,4.15854 0.0456,9.37645 0.10129,11.59535 0.0557,2.2189 0.0391,7.98567 -0.0368,12.81504 -0.076,4.82937 -0.0839,8.86076 -0.0176,8.95865 0.0663,0.0979 0.30425,0.17799 0.52888,0.17799 0.28519,0 0.35655,-0.1432 0.23653,-0.47463 z m 0.9178,-21.61189 c -0.48131,-0.26072 -0.3062,-0.36362 0.96118,-0.56482 0.92079,-0.14617 1.02142,-0.12152 0.73573,0.18019 -0.42619,0.45009 -1.23685,0.63384 -1.69691,0.38463 z m -2.11771,0.13484 c -0.11004,-1.91058 -0.14394,-2.02321 -0.32146,-1.06792 -0.26625,1.43281 -0.28786,5.20459 -0.0355,6.19987 0.16761,0.66109 0.22724,0.46944 0.34152,-1.09759 0.0762,-1.04418 0.0831,-2.85965 0.0155,-4.03436 z M 64.504243,185.1681 c 0.16551,-0.55695 0.40778,-1.07051 0.53839,-1.14126 0.34021,-0.18429 0.2948,0.17188 -0.16869,1.32328 -0.48047,1.19358 -0.47963,1.18657 -0.14294,1.18657 0.14476,0 0.46825,-0.61405 0.71888,-1.36456 0.25062,-0.75051 0.50873,-1.22881 0.57357,-1.06288 0.0648,0.16593 -0.0155,0.63711 -0.17858,1.04708 -0.51073,1.2841 -0.0619,1.04139 0.63751,-0.34474 0.36727,-0.72789 0.86586,-2.25 1.10798,-3.38246 0.24211,-1.13246 0.86579,-3.08951 1.38596,-4.34899 1.52145,-3.68385 2.55146,-8.52437 2.65883,-12.49513 0.0318,-1.17471 0.15643,-3.28386 0.27703,-4.68698 0.1206,-1.40313 0.12088,-2.55114 6.1e-4,-2.55114 -0.12026,0 -0.62409,0.27103 -1.11962,0.60231 -1.20514,0.80565 -1.57113,2.05659 -2.11502,7.2291 -0.29608,2.81575 -0.69257,4.99359 -1.23134,6.76349 -0.63973,2.10154 -1.61894,6.49468 -1.62411,7.2864 -6e-4,0.0918 -0.53165,0.62577 -1.18011,1.18658 -1.01996,0.88207 -2.59654,3.03682 -2.22197,3.03682 0.0715,0 0.42231,-0.27637 0.77968,-0.61417 0.54401,-0.51422 0.6766,-0.55284 0.81475,-0.23731 0.0907,0.20727 0.0557,0.37685 -0.0779,0.37685 -0.28851,0 -0.94434,2.41062 -0.77614,2.85288 0.0642,0.16884 0.28211,-0.2972 0.48423,-1.03564 0.20212,-0.73843 0.46987,-1.34261 0.595,-1.34261 0.31838,0 0.28621,0.26915 -0.16661,1.39406 -0.21678,0.5385 -0.3237,0.9791 -0.23761,0.9791 0.0861,0 0.0208,0.14331 -0.14505,0.31848 -0.16586,0.17516 -0.21956,0.39035 -0.11934,0.47819 0.25866,0.22671 0.58395,-0.28023 0.93257,-1.45332 z m 0.50509,-3.33032 c 0.92026,-0.69243 1.324,-0.81841 0.95761,-0.29881 -0.0988,0.14013 -0.56793,0.42513 -1.04247,0.63333 l -0.86281,0.37853 z m 26.9769,3.96408 c -0.62255,-1.33287 -0.76424,-1.87564 -0.48963,-1.87564 0.14286,0 0.47874,0.64075 0.74639,1.4239 0.26765,0.78314 0.58542,1.42389 0.70616,1.42389 0.32157,0 0.27689,-0.25419 -0.30545,-1.73768 -0.28873,-0.73554 -0.42597,-1.39097 -0.30499,-1.45651 0.12099,-0.0655 0.44258,0.54625 0.71465,1.35953 0.29925,0.89454 0.53106,1.28837 0.58678,0.99692 0.0507,-0.26497 -0.15161,-1.16811 -0.4495,-2.00699 -0.29789,-0.83888 -0.48732,-1.57282 -0.42096,-1.63098 0.0663,-0.0582 0.37993,0.18316 0.69683,0.53627 0.3169,0.35311 0.62889,0.59582 0.6933,0.53937 0.26914,-0.23589 -1.13009,-2.12544 -2.12864,-2.87459 -1.0529,-0.78991 -1.09086,-0.87288 -1.59995,-3.49676 -0.2868,-1.47821 -0.83166,-3.68826 -1.2108,-4.91123 -0.42784,-1.38007 -0.93039,-4.19856 -1.32478,-7.42985 -0.55266,-4.52796 -0.7177,-5.3115 -1.26678,-6.01383 -0.65857,-0.8424 -1.72776,-1.4904 -2.02675,-1.22835 -0.0955,0.0838 -0.0222,1.65117 0.16298,3.48317 0.1852,1.832 0.27019,3.48284 0.18889,3.66855 -0.18115,0.41376 0.98255,7.31859 1.55651,9.23557 0.22893,0.76461 0.90685,2.64038 1.50649,4.16837 0.59963,1.52799 1.09025,3.10709 1.09025,3.5091 0,0.96132 0.9481,3.62769 1.50246,4.22538 0.43564,0.46969 0.4365,0.46968 0.26064,-0.003 -0.097,-0.26105 -0.24495,-0.79501 -0.32867,-1.18658 -0.22638,-1.05873 0.30204,-0.44569 0.71595,0.83061 0.30157,0.92989 0.77818,1.54667 1.02679,1.32876 0.0435,-0.0381 -0.0907,-0.43278 -0.29817,-0.87702 z m -0.93261,-4.02072 c -0.69333,-0.56615 -0.7527,-0.74166 -0.18644,-0.55121 0.22338,0.0751 0.40615,0.21565 0.40615,0.31226 0,0.0966 0.27415,0.29155 0.60922,0.43318 0.4073,0.17217 0.46909,0.26284 0.18643,0.27358 -0.23253,0.009 -0.68944,-0.20168 -1.01536,-0.46781 z m -10.47692,-0.71925 c 0.9976,-0.5312 2.62793,-1.14702 3.62296,-1.3685 l 1.80915,-0.40268 -0.23146,-1.02583 c -0.20179,-0.89432 -0.30691,-1.00966 -0.81997,-0.89963 -3.06995,0.65837 -9.155,0.74156 -12.56979,0.17185 l -1.15076,-0.19199 -0.31998,0.93605 c -0.35438,1.03672 -0.10342,1.36272 1.05446,1.36974 0.92255,0.006 3.34124,0.89034 4.54544,1.66271 0.59568,0.38206 1.34475,0.69903 1.66459,0.70437 0.31985,0.005 1.39776,-0.42489 2.39536,-0.95609 z m 3.83054,-3.95038 0.85066,-0.1861 -1.07333,-2.13584 -1.07333,-2.13584 0.1468,-2.52291 0.1468,-2.52291 -0.83795,-0.14689 c -1.0874,-0.19061 -7.10204,-0.18539 -8.43258,0.007 -0.93763,0.13581 -1.01556,0.2038 -0.881,0.76867 0.0812,0.34082 0.16897,1.49753 0.19507,2.57046 0.0436,1.79258 -0.0363,2.11545 -0.98477,3.98117 -0.56772,1.11672 -0.98009,2.07608 -0.91637,2.13193 0.5959,0.52229 10.66228,0.67175 12.86,0.19095 z m -6.56258,-2.53285 c -0.17653,-0.4032 0.0607,-0.85701 0.44803,-0.85701 0.34147,0 0.3267,0.88229 -0.0179,1.06896 -0.14998,0.0812 -0.34354,-0.0141 -0.43014,-0.21195 z m 5.84731,-7.9706 c 0,-0.38045 -0.11477,-0.43535 -0.60922,-0.29142 -0.33507,0.0975 -0.79198,0.1606 -1.01536,0.14016 -0.22338,-0.0204 -0.68029,-0.0495 -1.01536,-0.0645 -0.33507,-0.0151 -0.60922,-0.13503 -0.60922,-0.26661 0,-0.13158 0.52003,-0.22199 1.15562,-0.20092 0.63559,0.0211 1.42401,-0.1086 1.75204,-0.28815 1.10663,-0.60573 1.25392,-1.37495 0.91838,-4.79626 -0.16924,-1.7256 -0.30735,-3.32434 -0.30691,-3.55275 4.3e-4,-0.22842 -0.16628,-0.41531 -0.37047,-0.41531 -0.24246,0 -0.43538,0.42362 -0.55606,1.22101 -0.33547,2.21644 -2.01128,4.1907 -3.62873,4.27496 -2.90133,0.15113 -4.09733,-0.37795 -5.04667,-2.23253 -0.35087,-0.68544 -0.72045,-1.70012 -0.82129,-2.25484 -0.17567,-0.96638 -0.58724,-1.33682 -0.79099,-0.71195 -0.0532,0.16315 -0.23983,1.82689 -0.41473,3.69719 -0.28078,3.00248 -0.26816,3.46723 0.10777,3.9701 0.61288,0.81982 1.92394,1.35243 2.87731,1.16891 0.5325,-0.10251 0.79253,-0.0592 0.79253,0.13212 0,0.2012 -0.47649,0.25449 -1.62458,0.1817 -0.89352,-0.0567 -1.62458,-0.0782 -1.62458,-0.0479 0,0.0303 0.074,0.22399 0.16435,0.43045 0.14205,0.32444 0.87689,0.37538 5.41526,0.37538 5.04847,0 5.25091,-0.0181 5.25091,-0.46875 z m -3.45212,-4.98599 c 0.97345,-0.5034 1.93854,-1.80703 2.1987,-2.96995 0.43752,-1.95578 0.43579,-1.96708 -0.32571,-2.13108 -1.36118,-0.29313 -1.94079,-0.78718 -1.94079,-1.65429 v -0.80799 l -1.45217,0.13136 c -0.93672,0.0847 -1.51903,0.0365 -1.64055,-0.1358 -0.37655,-0.534 -0.66863,-0.24529 -0.75008,0.74142 -0.0769,0.93197 -0.17191,1.04465 -1.25007,1.48323 l -1.16681,0.47463 0.1258,1.19424 c 0.18295,1.73676 1.3682,3.36512 2.87562,3.95069 0.82214,0.31936 2.43276,0.18549 3.32606,-0.27646 z m -5.2123,-4.27518 c -0.56117,-0.15752 -0.46858,-0.19343 0.54153,-0.21003 0.67014,-0.011 1.4012,0.0835 1.62458,0.21003 0.50725,0.28731 -1.14251,0.28731 -2.16611,0 z m 4.46759,0 c 0.29784,-0.11218 0.96798,-0.20082 1.4892,-0.19698 0.86151,0.006 0.88613,0.0242 0.27076,0.19698 -0.3723,0.1045 -1.04244,0.19314 -1.4892,0.19698 -0.68971,0.006 -0.73057,-0.0238 -0.27076,-0.19698 z m 0.62652,-4.26697 c 1.50371,-0.95473 1.895,-1.54526 2.32037,-3.50189 0.53723,-2.47124 0.16954,-4.01376 -1.18693,-4.9793 -0.51856,-0.36912 -4.8796,-0.39981 -5.77891,-0.0407 -0.36295,0.14494 -0.8256,0.53547 -1.02811,0.86786 -0.41868,0.6872 -0.50578,4.17159 -0.12298,4.92015 0.1335,0.26105 0.27885,0.63482 0.32301,0.83061 0.0442,0.19578 0.68684,0.86323 1.42817,1.48322 1.62611,1.35993 2.43303,1.44371 4.04538,0.42001 z m -2.65724,-0.71666 c 0,-0.13052 0.36553,-0.23732 0.81229,-0.23732 0.44676,0 0.81229,0.1068 0.81229,0.23732 0,0.13052 -0.36553,0.23732 -0.81229,0.23732 -0.44676,0 -0.81229,-0.1068 -0.81229,-0.23732 z m -0.81229,-0.71195 c 0,-0.13184 0.72204,-0.23731 1.62458,-0.23731 0.90254,0 1.62458,0.10547 1.62458,0.23731 0,0.13185 -0.72204,0.23732 -1.62458,0.23732 -0.90254,0 -1.62458,-0.10547 -1.62458,-0.23732 z m 0.72204,-0.87015 c -0.39073,-0.34246 -0.13463,-0.44379 0.90254,-0.3571 0.59568,0.0498 1.08305,0.1861 1.08305,0.30292 0,0.24472 -1.71481,0.29151 -1.98559,0.0542 z m 0.40158,-1.66158 c -0.0223,-0.283 -0.11942,-0.71017 -0.2158,-0.94926 -0.13477,-0.33433 -0.0986,-0.37289 0.15655,-0.16698 0.18248,0.14726 0.27959,0.57442 0.2158,0.94926 -0.0817,0.48018 -0.12796,0.52951 -0.15655,0.16698 z m -2.20667,-0.56737 c 0,-0.13823 -0.11573,-0.18864 -0.25718,-0.11201 -0.33888,0.18356 -0.90916,-0.76534 -0.71984,-1.19777 0.20743,-0.47378 2.16376,-0.44384 2.62204,0.0401 0.32112,0.33914 0.2313,0.36097 -0.88251,0.21458 -0.81989,-0.10776 -1.30441,-0.0717 -1.43009,0.10659 -0.13154,0.18654 0.0176,0.22387 0.48429,0.12121 0.37091,-0.0816 0.95137,-0.0184 1.28992,0.14039 0.59321,0.27825 0.59716,0.30051 0.10885,0.61346 -0.60374,0.38694 -1.21548,0.42388 -1.21548,0.0734 z m 4.38603,-0.11668 c -0.19378,-0.19247 -0.27797,-0.45538 -0.18709,-0.58426 0.0909,-0.12888 -0.0247,-0.23432 -0.2569,-0.23432 -0.65943,0 -0.49505,-0.44955 0.22207,-0.6073 0.90945,-0.20006 2.1375,-0.0382 2.26348,0.29828 0.0745,0.19897 -0.20358,0.25266 -0.92679,0.17894 l -1.03321,-0.10533 0.87998,0.24315 c 0.89918,0.24845 1.20584,0.70421 0.47383,0.70421 -0.22338,0 -0.40614,0.10679 -0.40614,0.23731 0,0.35068 -0.62442,0.2714 -1.02923,-0.13068 z m -6.4506,0.63498 c -0.0951,-0.41695 -0.22942,-0.70863 -0.29841,-0.64817 -0.069,0.0605 -0.0413,0.44558 0.0615,0.85582 0.2439,0.97326 0.46264,0.78154 0.23692,-0.20765 z m 9.83357,-0.44045 c -0.0686,-0.2309 -0.12934,-0.0994 -0.13485,0.29213 -0.006,0.39157 0.0507,0.58048 0.12481,0.41981 0.0742,-0.16067 0.0787,-0.48104 0.01,-0.71194 z m -7.94442,-4.43822 c 0.51927,-0.18006 1.8405,-0.27246 3.38114,-0.23648 2.22296,0.0519 2.61181,0.12623 3.21509,0.61442 l 0.68629,0.55536 -0.20013,-0.59329 c -0.29913,-0.88675 -1.19731,-1.633 -2.28389,-1.89756 -1.40532,-0.34216 -3.1963,-0.29122 -4.17602,0.11878 -0.88934,0.37218 -2.07763,1.67834 -2.0634,2.2681 0.006,0.24029 0.0941,0.2118 0.29841,-0.0962 0.1596,-0.24065 0.67373,-0.57054 1.14251,-0.73308 z m 5.59068,-2.20181 c 0,-0.031 -0.38571,-0.23128 -0.85713,-0.44495 -1.00178,-0.45405 -3.29726,-0.35659 -3.89041,0.16518 -0.3199,0.28141 7.7e-4,0.33025 2.18632,0.333 1.40867,0.002 2.56122,-0.0222 2.56122,-0.0532 z"
   id="path1-1" /></g></svg>
