<?xml version="1.0" encoding="UTF-8" standalone="no"?>
<!-- Created with Inkscape (http://www.inkscape.org/) -->

<svg
   width="33.493031mm"
   height="83.058723mm"
   viewBox="0 0 33.493031 83.058723"
   version="1.1"
   id="svg1"
   xml:space="preserve"
   xmlns="http://www.w3.org/2000/svg"
   xmlns:svg="http://www.w3.org/2000/svg"><defs
     id="defs1" /><g
     id="layer1"
     transform="translate(-23.20445,-140.92692)"><path
       d="m 37.281712,223.75566 c -2.10179,-0.49406 -3.2298,-0.96836 -3.39626,-1.42803 -0.20078,-0.55444 0.43403,-1.26392 1.6063,-1.79524 l 0.78357,-0.35514 -0.15967,-1.93439 c -0.0878,-1.06391 -0.47991,-3.0023 -0.87131,-4.30754 -1.23345,-4.1132 -1.48178,-5.89293 -1.48217,-10.62242 -4e-4,-4.73093 -0.20167,-6.2643 -1.68956,-12.87181 -1.03873,-4.61282 -1.17737,-8.92186 -0.37033,-11.50979 0.26457,-0.84841 0.51005,-1.64935 0.5455,-1.77987 0.0354,-0.13052 0.25211,-0.61109 0.48146,-1.06792 1.98042,-3.94473 1.89645,-3.60373 1.59177,-6.46381 -0.2678,-2.51387 -0.55761,-3.63993 -0.56066,-2.17843 -0.004,1.73507 -1.20093,6.7155 -2.41993,10.06613 -0.73603,2.02312 -1.45699,4.27716 -1.60211,5.00898 -0.66166,3.33651 -1.97209,4.90275 -4.13394,4.94092 -1.36249,0.0241 -1.69863,-0.41583 -1.51424,-1.98169 0.13212,-1.12196 0.087,-1.29276 -0.36878,-1.39723 -0.8409,-0.19274 -0.70525,-0.67943 0.77312,-2.77393 0.32244,-0.45683 0.93723,-1.03427 1.36619,-1.2832 0.71578,-0.41537 0.8291,-0.68863 1.37783,-3.32242 0.32884,-1.5784 0.89205,-3.77755 1.25156,-4.887 0.39455,-1.21754 0.82229,-3.56942 1.07905,-5.93289 0.8121,-7.47557 1.19499,-8.29202 4.28687,-9.14099 0.76726,-0.21067 1.85193,-0.55238 2.41038,-0.75935 0.97429,-0.36108 1.01536,-0.42276 1.01536,-1.52479 0,-1.1505 -0.58146,-2.07221 -2.36698,-3.75198 -0.64954,-0.61108 -0.97313,-1.78462 -0.64641,-2.34433 0.12709,-0.21773 0.30406,-0.96386 0.39325,-1.65808 0.0892,-0.69421 0.33227,-1.54855 0.54017,-1.89852 0.20791,-0.34998 0.70657,-1.1972 1.10814,-1.88272 0.88158,-1.50494 1.82353,-1.99126 3.85681,-1.99126 1.68688,0 2.66554,0.44036 3.13581,1.41102 0.17056,0.35203 0.51366,0.85365 0.76245,1.11469 0.63787,0.6693 1.06889,1.91667 1.06889,3.09339 0,0.55296 0.17312,1.29785 0.38472,1.65532 0.21159,0.35747 0.32202,0.82354 0.24538,1.03572 -0.38543,1.06714 -0.71559,1.69101 -0.89489,1.69101 -0.1095,0 -0.64877,0.60723 -1.19836,1.3494 -0.83934,1.13344 -0.98639,1.52116 -0.9188,2.42256 l 0.0805,1.07314 1.62458,0.44926 c 2.67549,0.73987 3.01758,0.88151 3.84818,1.59325 1.10876,0.95011 1.37321,1.92255 1.97772,7.27246 0.3484,3.08336 0.76152,5.38963 1.21038,6.75712 0.3748,1.14184 0.92108,3.32368 1.21396,4.84854 0.51703,2.69192 0.5625,2.79496 1.56502,3.54708 1.16835,0.87652 2.62937,3.04643 2.40155,3.56678 -0.083,0.18951 -0.33171,0.34457 -0.55275,0.34457 -0.32137,0 -0.37078,0.23016 -0.24665,1.14878 0.21851,1.61705 -0.17932,2.17364 -1.55361,2.17364 -1.94874,0 -2.93455,-0.97585 -3.87268,-3.83357 -0.24226,-0.73797 -0.44048,-1.63454 -0.44048,-1.99237 0,-0.35784 -0.61613,-2.24968 -1.36918,-4.20411 -0.95341,-2.47445 -1.5627,-4.60785 -2.00649,-7.02562 -0.35052,-1.90966 -0.65754,-3.25853 -0.68226,-2.99748 -0.0247,0.26104 -0.0958,0.68821 -0.15807,0.94926 -0.0622,0.26104 -0.14429,1.38236 -0.18236,2.49181 -0.0577,1.68166 0.0321,2.20468 0.53999,3.14443 1.22567,2.26789 1.73857,3.33272 1.84303,3.82631 0.0587,0.27758 0.25943,1.03866 0.44597,1.69127 0.5942,2.07879 0.4091,6.71597 -0.40733,10.20457 -1.5712,6.71373 -1.84776,8.75867 -1.82281,13.47824 0.0217,4.0965 -0.0444,4.75098 -0.80961,8.02513 -0.45825,1.96068 -0.95912,3.85147 -1.11303,4.20176 -0.15392,0.35028 -0.34669,1.5982 -0.42839,2.77315 l -0.14855,2.13626 0.99179,0.41452 c 1.1037,0.46131 1.37986,0.86424 1.14778,1.67469 -0.12846,0.44858 -0.55268,0.64678 -2.36892,1.10677 -1.74549,0.44206 -2.36984,0.50825 -2.95818,0.31361 -0.42892,-0.1419 -0.90155,-0.16018 -1.1125,-0.043 -0.44586,0.24762 -0.88949,0.23623 -2.12674,-0.0546 z m 2.30511,-0.93101 c 0.0965,-0.26656 0.0902,-0.92708 -0.014,-1.46784 -0.15188,-0.7879 -0.36546,-9.29543 -0.43952,-17.50739 -0.006,-0.71788 0.0781,-5.42694 0.18783,-10.46458 l 0.1996,-9.15934 -1.26307,-0.15173 c -1.51949,-0.18255 -3.77917,-1.08641 -5.20958,-2.08383 l -1.04622,-0.72952 -0.0777,2.29425 c -0.063,1.86071 0.12602,3.26626 1.00054,7.43812 1.60966,7.67883 1.74815,8.76547 1.54561,12.12793 -0.20593,3.41903 0.0461,5.43652 1.21751,9.74668 0.94618,3.48138 1.39753,6.25963 1.16795,7.18916 -0.10516,0.4258 -0.54258,0.87258 -1.22268,1.24888 -0.58242,0.32225 -1.05895,0.68748 -1.05895,0.81164 0,0.27304 3.09366,1.16021 4.11089,1.17887 0.50162,0.009 0.78065,-0.13661 0.90185,-0.4713 z m -4.03612,-21.07003 c -0.0887,-0.12574 0.0308,-0.29321 0.26552,-0.37215 0.67905,-0.22839 2.00702,-0.16633 2.00702,0.0938 0,0.13053 -0.29464,0.23732 -0.65476,0.23732 -0.36012,0 -0.83517,0.0607 -1.05567,0.13483 -0.22049,0.0742 -0.47344,0.032 -0.56211,-0.0938 z m 7.70635,21.17448 c 2.47001,-0.63854 2.59835,-0.94874 0.73692,-1.78106 l -1.10312,-0.49325 0.16939,-1.93584 c 0.16782,-1.9179 0.28477,-2.45672 1.68224,-7.75007 0.64971,-2.461 0.7271,-3.25373 0.78778,-8.06873 0.0615,-4.87842 0.14365,-5.69828 0.9514,-9.49261 1.51717,-7.12681 1.60151,-7.6522 1.61622,-10.06795 l 0.0143,-2.35519 -0.60922,0.47482 c -0.80053,0.62394 -3.20823,1.98107 -3.51462,1.98107 -0.13218,0 -0.15339,0.12329 -0.0471,0.27398 0.11222,0.15914 0.075,0.20995 -0.0888,0.12122 -0.15511,-0.084 -0.95899,-0.0336 -1.78641,0.11205 l -1.5044,0.2648 -0.0831,2.87706 c -0.0457,1.58238 0.028,5.76044 0.16366,9.28458 0.13571,3.52413 0.23454,6.94148 0.21962,7.59409 -0.0149,0.65262 -0.0869,4.28355 -0.15995,8.06873 -0.073,3.78518 -0.21134,7.71604 -0.3073,8.73524 -0.24905,2.64526 0.0633,2.88067 2.86246,2.15706 z m -0.36267,-21.15138 c -0.56157,-0.0514 -0.95037,-0.1936 -0.864,-0.31608 0.30154,-0.42764 2.29117,-0.18681 2.29117,0.27733 0,0.11656 -0.0914,0.19397 -0.20307,0.17203 -0.11169,-0.0219 -0.66254,-0.0819 -1.2241,-0.13328 z m -2.6533,2.47299 c -0.0227,-3.45286 -0.39476,-4.76267 -0.56065,-1.97377 -0.14629,2.45954 0.0371,5.16078 0.33931,4.99709 0.1322,-0.0716 0.2318,-1.43211 0.22134,-3.02332 z m -13.92526,-17.5568 c 0.47259,0.0332 0.47801,0.0221 0.0426,-0.0869 -0.36292,-0.0909 -0.45342,-0.26458 -0.33193,-0.63722 0.0919,-0.28178 0.24024,-0.806 0.32973,-1.16494 0.0895,-0.35894 0.27164,-0.65262 0.40478,-0.65262 0.26378,0 0.0415,1.04013 -0.37351,1.748 -0.19248,0.32828 -0.16967,0.41648 0.0882,0.34114 0.19131,-0.0559 0.5179,-0.54881 0.72577,-1.09538 0.20786,-0.54657 0.49126,-0.99376 0.62977,-0.99376 0.13851,0 0.0674,0.38682 -0.15795,0.85959 -0.51299,1.07611 -0.51491,1.53658 -0.004,0.94493 0.5335,-0.61773 1.40956,-3.09599 1.60264,-4.53365 0.0876,-0.65261 0.65025,-2.4128 1.25022,-3.91154 0.59998,-1.49873 1.26172,-3.37067 1.47055,-4.15986 0.739,-2.79291 1.48842,-8.31694 1.35455,-9.9846 -0.13597,-1.69381 0.18271,-1.43689 0.53998,0.43533 0.2071,1.08526 0.7059,1.14704 1.76517,0.21862 0.93744,-0.82164 1.40299,-2.19487 1.1773,-3.47268 -0.24997,-1.41525 -1.33714,-3.4501 -1.84331,-3.4501 -0.8372,0 -2.20722,0.65745 -2.92242,1.40242 -0.97291,1.0134 -1.14871,1.72529 -1.79276,7.2596 -0.33116,2.84566 -0.77491,5.36402 -1.10814,6.28886 -0.67215,1.86547 -1.9126,7.85019 -1.69653,8.18517 0.085,0.13174 0.0569,0.16225 -0.0623,0.0678 -0.41632,-0.32979 -1.70429,0.60482 -2.58128,1.8731 -0.95135,1.37581 -0.9662,1.93581 -0.0235,0.88537 0.31691,-0.35311 0.627,-0.59748 0.68911,-0.54304 0.0621,0.0544 -0.12236,0.84267 -0.40994,1.75163 -0.5811,1.83678 -0.64193,2.23012 -0.29201,1.88838 0.12697,-0.124 0.38587,-0.73077 0.57534,-1.34839 0.18947,-0.61762 0.44367,-1.06922 0.56488,-1.00356 0.12122,0.0657 -0.0158,0.7212 -0.30457,1.45674 -0.61439,1.56515 -0.64592,1.83218 -0.18651,1.57962 0.18615,-0.10234 0.58214,-0.16896 0.87998,-0.14805 z m 3.92606,-14.88208 c 0,-0.13052 0.30461,-0.23731 0.67691,-0.23731 0.37229,0 0.6769,0.10679 0.6769,0.23731 0,0.13052 -0.30461,0.23732 -0.6769,0.23732 -0.3723,0 -0.67691,-0.1068 -0.67691,-0.23732 z m 24.10028,13.53353 c -0.62861,-1.72465 -0.61837,-1.66776 -0.30015,-1.66776 0.13407,0 0.39,0.53429 0.56873,1.18731 0.17874,0.65302 0.44763,1.25375 0.59754,1.33495 0.16314,0.0884 0.21061,-0.031 0.11824,-0.29737 -0.19919,-0.57438 -0.71425,-2.41127 -0.89002,-3.17415 -0.12709,-0.55158 -0.0787,-0.5349 0.6883,0.23732 0.45374,0.45683 0.82827,0.74282 0.83227,0.63554 0.014,-0.37591 -1.46482,-2.41877 -1.99581,-2.75697 -1.2598,-0.8024 -1.44111,-1.15725 -1.89425,-3.70731 -0.25185,-1.41727 -0.77379,-3.53921 -1.15987,-4.71543 -0.61821,-1.8834 -1.15222,-4.29596 -1.18553,-5.35597 -0.0706,-2.24559 -0.70259,-6.53267 -1.10206,-7.47544 -0.54635,-1.28937 -1.61004,-2.08912 -3.15246,-2.37021 -0.84341,-0.1537 -0.90977,-0.1126 -1.40617,0.87097 -1.3636,2.70184 -1.24936,4.8582 0.31862,6.01459 1.21536,0.89633 1.49898,0.76674 1.86206,-0.85082 0.1775,-0.79076 0.41793,-1.35142 0.53428,-1.2459 0.11636,0.10551 0.0905,0.76731 -0.0574,1.47066 -0.49018,2.33045 0.76146,9.02849 2.52031,13.48727 0.59493,1.50817 1.19851,3.39483 1.3413,4.19258 0.25438,1.42132 1.08429,3.82012 1.63192,4.71697 0.46308,0.75838 0.56158,0.28177 0.12922,-0.6252 -0.22315,-0.46809 -0.29715,-0.90989 -0.16446,-0.98177 0.1327,-0.0719 0.39039,0.32626 0.57265,0.88475 0.33096,1.01417 0.76245,1.70155 0.95963,1.52872 0.0574,-0.0503 -0.003,-0.34657 -0.13432,-0.65835 -0.46992,-1.11603 -0.60043,-1.87211 -0.32314,-1.87211 0.15175,0 0.27592,0.15134 0.27592,0.3363 0,0.46506 1.06634,2.60524 1.22762,2.46388 0.072,-0.0631 -0.11379,-0.78631 -0.41295,-1.60705 z m -6.09455,-13.53353 c -0.0976,-0.13845 0.1777,-0.23731 0.66093,-0.23731 0.45555,0 0.82827,0.10679 0.82827,0.23731 0,0.13052 -0.29742,0.23732 -0.66093,0.23732 -0.36351,0 -0.73623,-0.1068 -0.82827,-0.23732 z m -4.1572,11.08662 c 0.81678,-0.35024 2.00945,-1.06113 2.65039,-1.57975 1.09238,-0.8839 1.1533,-0.99918 0.97304,-1.84135 -0.10576,-0.49413 -0.24608,-0.97468 -0.31181,-1.0679 -0.0657,-0.0932 -3.43461,-0.14743 -7.4864,-0.12047 l -7.36688,0.049 -0.23654,1.13437 c -0.2207,1.05841 -0.187,1.17461 0.5034,1.7354 2.21688,1.80074 4.38713,2.49866 7.46639,2.4011 1.85873,-0.0589 2.62036,-0.20096 3.80841,-0.71043 z m 2.79691,-5.62788 c -0.0918,-0.32657 -0.60183,-1.44127 -1.13346,-2.47709 -0.9626,-1.87554 -0.96597,-1.89385 -0.81326,-4.43099 0.17901,-2.974 0.32835,-2.82234 -2.77923,-2.82234 h -2.11589 l 0.12935,2.31383 c 0.0711,1.2726 0.01,2.74099 -0.13625,3.26309 -0.21594,0.77176 -0.27069,0.33738 -0.2928,-2.32307 l -0.0272,-3.27233 -2.36918,0.0686 -2.36917,0.0686 0.0964,2.61047 c 0.0877,2.37383 0.0354,2.7288 -0.57635,3.91571 -0.73581,1.42753 -1.82163,3.60288 -1.82149,3.64923 5e-5,0.016 3.23452,0.0294 7.18772,0.0297 l 7.18763,4.8e-4 z m -1.62229,-10.28891 c 0.47536,-1.39519 0.38644,-1.73674 -0.55452,-2.13003 -0.51381,-0.21475 -1.17659,-0.7389 -1.47285,-1.16479 -0.72195,-1.03782 -0.72615,-3.30789 -0.009,-4.96169 0.29233,-0.6743 0.45627,-1.3327 0.36431,-1.46311 -0.0943,-0.13374 -0.0309,-0.16328 0.14541,-0.0678 0.17193,0.0931 0.3126,0.0625 0.3126,-0.068 0,-0.49995 -0.60249,-0.53197 -0.98575,-0.0524 -1.27872,1.60012 -4.87267,1.60012 -6.1514,0 -0.81659,-1.02183 -0.95558,-0.21995 -0.26203,1.51177 0.93269,2.32881 0.80645,4.60378 -0.31225,5.62721 -0.40786,0.37312 -1.02155,0.73999 -1.36375,0.81527 -0.40985,0.0902 -0.59009,0.27894 -0.52816,0.55316 0.0517,0.22896 0.15735,0.68465 0.23475,1.01264 l 0.14074,0.59635 5.17469,0.0317 c 3.68424,0.0226 5.20139,-0.0466 5.2674,-0.24038 z m -3.44804,-9.64347 c 0.97921,-0.52328 1.07136,-0.75454 0.47384,-1.18918 -0.26439,-0.19232 -0.40615,-0.72015 -0.40615,-1.51228 v -1.21685 h -1.89534 -1.89534 v 1.23245 c 0,0.97216 -0.11685,1.30419 -0.55328,1.57211 -0.5451,0.33464 -0.54079,0.34888 0.29154,0.96272 1.05027,0.77458 2.70083,0.83714 3.98473,0.15103 z m -0.0769,-4.61157 c 1.33803,-0.49001 2.23182,-1.83387 2.59615,-3.90347 0.32803,-1.86343 0.18795,-3.34282 -0.40656,-4.29342 l -0.3653,-0.58411 -0.41235,0.86499 c -0.493,1.03415 -1.62225,1.60847 -3.16265,1.60847 -1.49697,0 -2.59613,-0.54357 -3.20599,-1.58546 l -0.50626,-0.8649 -0.48406,1.11092 c -0.37338,0.85691 -0.44898,1.50331 -0.33066,2.82706 0.17033,1.9055 0.84633,3.61108 1.32785,3.35024 0.18964,-0.10273 0.2288,-0.0577 0.10388,0.11949 -0.45116,0.63981 1.39652,1.66105 3.03625,1.67819 0.48877,0.005 1.30314,-0.14249 1.8097,-0.328 z m -6.70757,-3.87054 c -0.0686,-0.2309 -0.12933,-0.0994 -0.13485,0.29212 -0.006,0.39157 0.0506,0.58049 0.12482,0.41982 0.0742,-0.16067 0.0787,-0.48104 0.01,-0.71194 z m 10.00992,-0.12318 c -0.0751,-0.16315 -0.13657,-0.0297 -0.13657,0.29665 0,0.32631 0.0615,0.4598 0.13657,0.29664 0.0751,-0.16315 0.0751,-0.43013 0,-0.59329 z m -2.86613,-3.48215 c 1.97756,-1.73326 0.0984,-4.19937 -2.83264,-3.71743 -2.29701,0.37769 -3.10735,2.39986 -1.49176,3.72262 0.6945,0.56862 1.0753,0.68851 2.18694,0.68851 1.12667,0 1.47497,-0.11304 2.13746,-0.6937 z"
       style="fill:#000000"
       id="path1-5" /></g></svg>
