<?xml version="1.0" encoding="UTF-8" standalone="no"?>
<!-- Created with Inkscape (http://www.inkscape.org/) -->

<svg
  allow-external-styles="true"
  width="40.70644mm"
  height="84.606247mm"
  viewBox="0 0 40.70644 84.606247"
  version="1.1"
  id="svg1"
  xml:space="preserve"
  xmlns="http://www.w3.org/2000/svg"
  xmlns:svg="http://www.w3.org/2000/svg">
  <defs id="defs1" />
     <g id="layer1" transform="translate(-17.400478,-48.622577)">
     <g fill="#9d65ea"
       id="g2"
       transform="translate(-8.0181815,-10.472727)">
       <path 
         d="m 41.207843,143.54212 c -2.609066,-0.45407 -2.890612,-1.32876 -1.220701,-3.79241 1.276555,-1.88332 1.309385,-2.29802 0.426517,-5.38757 -1.247722,-4.36632 -1.607706,-6.98324 -1.375153,-9.9967 0.291571,-3.77824 0.258729,-4.14052 -0.662515,-7.30826 -1.196066,-4.11272 -1.464367,-5.9453 -1.468357,-10.02932 -0.0037,-3.8153 0.375772,-7.407769 1.09878,-10.401423 0.534762,-2.214215 0.360684,-6.891938 -0.330668,-8.885506 -0.261233,-0.753286 -0.517315,-1.332497 -0.56907,-1.287135 -0.20382,0.178642 -0.674511,2.777159 -0.911108,5.029901 -0.20133,1.916946 -0.51148,3.001265 -1.613371,5.640519 -0.878899,2.105143 -1.364128,3.644704 -1.364128,4.328174 0,1.09848 -1.378422,5.17903 -1.966936,5.82273 -0.184002,0.20125 -0.779414,0.54833 -1.323139,0.77127 -2.309539,0.947 -3.703378,0.18292 -3.38462,-1.8554 0.14916,-0.95381 0.110679,-1.06165 -0.378818,-1.06165 -0.299665,0 -0.618487,-0.16821 -0.708494,-0.37379 -0.277873,-0.63467 1.038856,-2.77436 2.411961,-3.91944 l 1.306418,-1.089475 0.400684,-3.833704 c 0.284526,-2.722326 0.568549,-4.195212 0.979738,-5.08073 0.435301,-0.937444 0.635949,-2.071841 0.808226,-4.569444 0.556685,-8.070603 0.6137,-8.484102 1.325266,-9.611276 0.476344,-0.754566 1.070072,-1.257787 2.023442,-1.714994 0.742106,-0.35589 1.532048,-0.65397 1.755427,-0.662399 0.22338,-0.0084 1.624578,-0.469343 3.113774,-1.024254 2.678106,-0.997926 2.707762,-1.017874 2.719788,-1.829412 0.0067,-0.451267 -0.203503,-1.100216 -0.467091,-1.442108 -0.263588,-0.341893 -0.609361,-0.875852 -0.768384,-1.186578 -0.159023,-0.310725 -0.46487,-0.831934 -0.679659,-1.158243 -0.529314,-0.804135 -0.524397,-2.583026 0.0076,-2.761966 0.293572,-0.09874 0.406144,-0.502001 0.406144,-1.454923 0,-2.657506 1.958222,-4.310008 5.120707,-4.321256 2.879499,-0.01024 4.897521,1.731886 4.897521,4.227955 0,0.747796 0.145887,1.273092 0.406145,1.462405 0.72275,0.525732 0.476374,1.924299 -0.692235,3.929518 -0.604108,1.036591 -1.134703,2.244522 -1.1791,2.684291 -0.07631,0.75587 -0.0052,0.828371 1.301451,1.326218 0.760195,0.289651 2.113232,0.770977 3.00675,1.069615 4.133625,1.381569 4.729215,1.701301 5.469884,2.936414 0.4535,0.75624 0.619144,2.104549 1.143829,9.310508 0.193684,2.660026 0.40615,3.900613 0.829099,4.84109 0.452979,1.007256 1.348143,6.699363 1.356181,8.6236 4.41e-4,0.105519 0.532044,0.615598 1.181339,1.133518 0.649296,0.51792 1.397363,1.3631 1.662372,1.87819 0.26501,0.51509 0.560317,0.89401 0.656239,0.84205 0.09592,-0.052 0.170296,0.29803 0.165277,0.77774 -0.0073,0.70191 -0.12007,0.88611 -0.577303,0.94334 -0.510834,0.0639 -0.555107,0.19035 -0.438665,1.25249 0.161616,1.4742 -0.378669,2.11746 -1.778483,2.11746 -0.885619,0 -2.659522,-0.73983 -3.099538,-1.29271 -0.506181,-0.63601 -1.569248,-3.99755 -1.808173,-5.71766 -0.14577,-1.04944 -0.517859,-2.425035 -0.826865,-3.056865 -1.250021,-2.555942 -1.931966,-4.841414 -2.187884,-7.332476 -0.252403,-2.456847 -0.613449,-4.349224 -0.873226,-4.576911 -0.311621,-0.273126 -1.034774,2.955766 -1.181434,5.275121 -0.128455,2.031457 -0.04409,3.187783 0.396075,5.429019 1.522566,7.752532 1.411041,13.444792 -0.382378,19.516582 l -0.964589,3.2657 0.184998,3.79705 c 0.200685,4.11902 -0.04198,5.99077 -1.373624,10.59513 -0.894788,3.09386 -0.862999,3.50349 0.416147,5.36235 0.669465,0.97287 1.083052,1.86665 1.083052,2.34053 0,0.69072 -0.12145,0.80728 -1.226592,1.1772 -1.061032,0.35516 -3.452278,0.5293 -5.4071,0.39377 -0.297839,-0.0206 -1.211664,0.005 -2.030722,0.0561 -0.819058,0.0515 -2.097392,-0.0122 -2.840743,-0.14157 z m 1.023856,-0.91694 c 0.07789,-0.26105 0.263455,-0.47463 0.412375,-0.47463 0.14892,0 0.207038,0.21358 0.129151,0.47463 -0.09487,0.31797 -0.0083,0.47463 0.262266,0.47463 0.232144,0 0.472958,-0.30273 0.566336,-0.71195 0.217206,-0.95187 0.817429,-0.94152 0.657868,0.0113 -0.104527,0.62421 -0.04383,0.71361 0.443103,0.65262 0.666995,-0.0835 0.68479,-0.62454 0.162342,-4.93563 -0.230709,-1.90374 -0.261172,-3.84161 -0.100725,-6.40752 0.126505,-2.02312 0.17906,-4.95989 0.116789,-6.52618 -0.147355,-3.70636 -0.120132,-6.43441 0.128471,-12.87436 l 0.203836,-5.28027 -3.222401,-0.003 c -1.77232,-0.002 -3.496548,-0.0676 -3.831617,-0.14634 -0.576761,-0.13547 -0.608967,-0.0752 -0.604525,1.13049 0.0092,2.50589 0.540047,5.64906 1.501881,8.89328 0.950731,3.20676 0.971747,3.37137 0.769347,6.02595 -0.321136,4.21186 0.0122,7.22031 1.248988,11.27248 0.278866,0.91367 0.586324,2.1562 0.68324,2.76118 0.183003,1.14237 0.109606,1.31131 -1.771131,4.07675 -0.45957,0.67575 -0.537558,0.97336 -0.307829,1.17471 0.229729,0.20135 0.307678,0.19752 0.307678,-0.0151 0,-0.15663 0.121844,-0.28478 0.270763,-0.28478 0.14892,0 0.274638,0.24029 0.279374,0.53396 0.008,0.49445 0.03523,0.50323 0.368304,0.11866 0.472028,-0.545 0.706137,-0.52534 0.706137,0.0593 0,0.26105 0.107632,0.47463 0.239183,0.47463 0.131551,0 0.302909,-0.21358 0.380796,-0.47463 z m -0.654516,-22.23015 c -0.333655,-0.35657 -0.302475,-0.38114 0.3053,-0.24056 0.372299,0.0861 0.897324,0.15803 1.166722,0.15982 0.269398,0.002 0.414511,0.11003 0.322474,0.24055 -0.265065,0.37591 -1.386674,0.27602 -1.794496,-0.15981 z m 5.808073,21.96105 c -0.131231,-0.5751 -0.08365,-0.71892 0.209841,-0.63432 0.208753,0.0602 0.418105,0.39486 0.465227,0.74373 0.114997,0.85141 0.853083,0.83625 0.890799,-0.0183 l 0.0288,-0.65261 0.295845,0.65665 c 0.311072,0.69044 0.921952,0.76044 0.78542,0.09 -0.101205,-0.49697 0.374296,-0.51281 0.590205,-0.0197 0.08934,0.20406 0.287129,0.30347 0.439529,0.22092 0.152401,-0.0825 0.212196,-0.24213 0.132878,-0.35462 -0.07932,-0.11248 -0.02038,-0.27159 0.130964,-0.35358 0.151349,-0.082 0.27518,-0.0146 0.27518,0.14973 0,0.22649 0.07592,0.23224 0.313778,0.0238 0.237863,-0.20848 -0.0013,-0.75034 -0.988645,-2.23966 l -1.302423,-1.96464 0.447043,-1.90149 c 0.245874,-1.04583 0.688648,-2.82512 0.983943,-3.95398 0.864783,-3.30592 1.074027,-5.70699 0.773326,-8.87387 -0.27076,-2.85155 -0.269268,-2.86489 0.702111,-6.27992 1.005352,-3.53446 1.501656,-6.45522 1.505512,-8.85996 l 0.0022,-1.38542 -1.150742,0.17115 c -0.632908,0.0941 -2.356676,0.16526 -3.830594,0.15806 l -2.679851,-0.0131 0.220876,4.90574 c 0.254213,5.64618 0.298771,9.82829 0.140764,13.21179 -0.06095,1.30524 -0.01148,4.72258 0.109948,7.5941 0.191155,4.52053 0.158439,5.48657 -0.243872,7.20099 -0.522204,2.22535 -0.409593,3.12223 0.392025,3.12223 0.449065,0 0.503791,-0.11309 0.359888,-0.74373 z m 0.860155,-21.80124 c -0.09436,-0.13381 0.125189,-0.23731 0.503402,-0.23731 0.368908,0 0.893933,-0.0734 1.166722,-0.16309 0.436606,-0.14357 0.451494,-0.11516 0.124373,0.23731 -0.406895,0.43843 -1.528468,0.54036 -1.794497,0.16309 z m -2.023304,13.7643 c -0.02904,-2.67573 -0.07233,-6.30666 -0.09621,-8.06873 -0.02388,-1.76206 0.01174,-3.84451 0.07916,-4.62765 0.06742,-0.78314 0.0067,-3.55973 -0.134912,-6.1702 l -0.257488,-4.74631 -0.178827,3.44107 c -0.09836,1.89259 -0.168272,4.56239 -0.15537,5.93289 0.03128,3.32279 -0.0068,8.94031 -0.09404,13.88296 -0.03918,2.21889 0.02391,4.56832 0.140199,5.22094 0.194904,1.09383 0.232489,1.1402 0.480853,0.59328 0.154555,-0.34034 0.246915,-2.66745 0.216631,-5.45825 z M 28.935081,106.29936 c 0.250449,-0.8393 0.463675,-1.559 0.473835,-1.59933 0.01016,-0.0403 0.132864,-0.0114 0.272675,0.0644 0.148326,0.0803 0.03526,0.69546 -0.271464,1.47684 -0.524442,1.33602 -0.529421,1.67605 -0.02051,1.40038 0.265839,-0.144 0.643351,-1.05714 0.969059,-2.34399 0.0922,-0.36428 0.274029,-0.60469 0.404064,-0.53426 0.130035,0.0704 0.07137,0.60877 -0.130369,1.19629 -0.348417,1.01469 -0.123934,1.53251 0.283047,0.65291 0.85485,-1.84758 1.30482,-3.28491 1.504446,-4.80564 0.302191,-2.30205 0.316755,-2.350453 1.46383,-4.864967 1.178035,-2.582382 1.425614,-3.483727 1.778035,-6.473182 0.149614,-1.26912 0.460265,-3.108153 0.690335,-4.08674 0.263811,-1.122101 0.351183,-2.207025 0.236563,-2.937463 -0.197901,-1.261164 0.229649,-1.398268 0.511303,-0.163962 0.08862,0.388363 0.455957,0.875432 0.816304,1.082374 0.74419,0.427376 3.215477,0.569536 5.049297,0.290459 1.140269,-0.173531 1.175009,-0.163867 0.541526,0.150633 -0.987567,0.49029 -3.206344,0.692224 -4.596939,0.418375 -0.665379,-0.131033 -1.259318,-0.194823 -1.319865,-0.141756 -0.06055,0.05307 0.224234,1.03489 0.632845,2.181827 0.717431,2.013766 0.739074,2.229854 0.630564,6.295813 l -0.112367,4.210472 0.961376,0.179864 c 1.25015,0.23389 10.962778,0.233656 12.213531,-2.94e-4 l 0.963165,-0.180158 -0.118501,-4.193683 c -0.115453,-4.085852 -0.09891,-4.247401 0.64325,-6.282832 0.418962,-1.149032 0.709002,-2.133511 0.644532,-2.187731 -0.06447,-0.05422 -0.787356,-0.0012 -1.606414,0.117745 -1.665543,0.241942 -3.315896,0.0843 -4.332207,-0.413823 -0.62413,-0.305902 -0.571352,-0.317628 0.676907,-0.150398 2.540616,0.340368 5.53317,-0.05071 5.562853,-0.726966 0.0067,-0.153032 0.172295,-0.598616 0.367951,-0.990186 0.334988,-0.670418 0.356252,-0.608125 0.364533,1.067919 0.0048,0.978927 0.137655,2.207034 0.295151,2.729128 0.157496,0.522094 0.470664,2.357991 0.695929,4.07977 0.315127,2.408632 0.635015,3.65807 1.387238,5.418344 1.357234,3.176063 1.744388,4.365228 1.747787,5.368438 0.0047,1.3761 1.467456,5.42392 1.960089,5.42392 0.146785,0 0.200069,-0.1526 0.118409,-0.33912 -0.08166,-0.18652 -0.232704,-0.74717 -0.335651,-1.24591 -0.273106,-1.32307 0.218302,-0.74887 0.69695,0.81436 0.22338,0.72955 0.549294,1.36781 0.724254,1.41837 0.231835,0.067 0.214348,-0.24974 -0.06448,-1.16783 -0.438696,-1.44449 -0.484346,-1.93268 -0.164523,-1.75943 0.12347,0.0669 0.386986,0.71528 0.585591,1.44089 0.439859,1.60704 1.149588,2.33441 0.895029,0.91727 -0.08982,-0.50006 -0.322052,-1.30967 -0.51606,-1.79914 -0.302184,-0.76238 -0.296251,-0.88993 0.04139,-0.88993 0.222057,0 0.403219,0.23312 0.414942,0.53396 0.01145,0.29368 0.191555,0.96113 0.400244,1.48322 l 0.379436,0.94926 -0.131828,-1.42389 c -0.07251,-0.78314 -0.201716,-1.79766 -0.287133,-2.2545 l -0.155304,-0.8306 0.559816,0.77127 c 0.495082,0.68209 1.109301,1.02899 1.109301,0.62651 0,-0.53449 -1.786178,-2.92166 -2.439003,-3.25966 -0.995828,-0.51558 -1.222715,-1.251533 -1.620866,-5.257584 -0.204591,-2.05852 -0.52616,-3.643813 -0.966386,-4.764151 -0.50056,-1.273883 -0.659766,-2.174087 -0.659766,-3.730534 0,-1.128317 -0.17384,-3.149335 -0.38631,-4.491153 -0.21247,-1.341817 -0.364775,-2.98121 -0.338454,-3.643094 0.06791,-1.707785 -0.952592,-3.017052 -2.988333,-3.833916 -1.402495,-0.562767 -1.688803,-0.593856 -4.109401,-0.446228 -1.431031,0.08728 -3.089248,0.21385 -3.684927,0.281276 -0.808384,0.0915 -0.971223,0.06064 -0.642096,-0.121678 0.242525,-0.134349 1.339115,-0.308546 2.436866,-0.387105 2.957595,-0.211656 3.012286,-0.292817 0.777478,-1.153785 -1.939646,-0.747255 -2.034455,-0.820536 -2.113956,-1.633947 l -0.08323,-0.851605 -0.864436,0.461971 c -1.435009,0.766896 -3.645671,0.479123 -4.599138,-0.598693 -0.118132,-0.133539 -0.196604,0.07758 -0.174382,0.469149 0.02222,0.39157 0.02749,0.85153 0.01171,1.022132 -0.01578,0.170603 -0.889059,0.643259 -1.940622,1.050348 -2.153115,0.833532 -2.075933,0.999993 0.558117,1.203704 0.967977,0.07486 2.064567,0.251852 2.436866,0.393314 0.578976,0.219993 0.50063,0.239305 -0.541526,0.133489 -0.670138,-0.06804 -2.381162,-0.192093 -3.802275,-0.275667 -2.293015,-0.13485 -2.733804,-0.09381 -3.91617,0.364596 -0.73278,0.284102 -1.566821,0.699356 -1.853425,0.922786 -0.828616,0.645974 -1.332605,1.961042 -1.292553,3.372681 0.02037,0.71788 -0.09189,1.945987 -0.249458,2.729128 -0.15757,0.783141 -0.381341,2.91898 -0.497268,4.74631 -0.151923,2.394709 -0.341088,3.541452 -0.677461,4.106852 -0.256676,0.43144 -0.584389,1.76634 -0.728252,2.966444 -0.786013,6.55695 -0.662522,6.11125 -1.984825,7.16355 -1.204943,0.9589 -1.959255,1.94618 -1.676378,2.19411 0.08421,0.0738 -0.05803,0.26951 -0.316091,0.4349 -0.25806,0.16539 -0.367088,0.38953 -0.242284,0.4981 0.124804,0.10856 0.494719,-0.0963 0.822034,-0.45523 0.855598,-0.93827 1.009215,-0.80916 0.564755,0.47463 -0.214644,0.61999 -0.379798,1.60781 -0.367008,2.19517 l 0.02325,1.06792 0.44765,-1.46655 c 0.51192,-1.67711 1.039937,-2.35359 0.707634,-0.90661 -0.1199,0.5221 -0.227446,1.18955 -0.238992,1.48323 -0.01154,0.29367 -0.09207,0.53396 -0.178937,0.53396 -0.08687,0 -0.157945,0.16315 -0.157945,0.36256 0,0.86697 0.624471,0.0709 1.042016,-1.32838 z m 33.08279,-3.64217 c -0.426711,-0.32887 -0.61844,-0.60133 -0.426064,-0.60546 0.430893,-0.009 1.563881,0.88616 1.35403,1.07009 -0.08367,0.0733 -0.501254,-0.13575 -0.927966,-0.46463 z M 28.6151,102.91947 c 0,-0.0407 0.365529,-0.31089 0.812288,-0.60039 0.850516,-0.55114 1.119975,-0.34111 0.386804,0.30149 -0.362981,0.31815 -1.199092,0.52656 -1.199092,0.2989 z m 16.787301,-7.638725 c 0,-0.244425 0.177457,-0.360822 0.473835,-0.310795 0.570726,0.09633 0.534739,0.517509 -0.05339,0.62484 -0.245307,0.04477 -0.420446,-0.08605 -0.420445,-0.314045 z m 0.195145,-3.025772 c -0.08267,-0.946296 -0.05694,-2.574873 0.05717,-3.619061 0.189024,-1.729622 0.211118,-1.576555 0.248346,1.720537 0.02247,1.990483 -0.0033,3.619061 -0.05717,3.619061 -0.05392,0 -0.165675,-0.774242 -0.248346,-1.720537 z m -4.099673,-3.263088 c 0.141385,-0.474717 0.78102,-1.38728 1.649531,-2.353378 0.04889,-0.05439 0.16432,-0.03277 0.256509,0.04803 0.09219,0.0808 8.05e-4,0.308476 -0.203073,0.505947 -0.722589,0.699882 -0.986104,1.012861 -1.430301,1.698786 -0.407847,0.629793 -0.43304,0.639089 -0.272666,0.100617 z m 8.187954,-0.147319 c -0.1869,-0.375807 -0.739007,-1.10221 -1.226905,-1.61423 -0.954939,-1.00215 -0.986899,-1.450671 -0.05052,-0.709032 0.64953,0.514449 1.978911,2.689559 1.760695,2.880819 -0.0789,0.06915 -0.296367,-0.181751 -0.483267,-0.557557 z M 39.084599,83.85005 c -0.36813,-0.322655 -0.160977,-0.553736 0.496399,-0.553736 0.421187,0 0.676907,0.134479 0.676907,0.355973 0,0.355949 -0.832692,0.4963 -1.173306,0.197763 z m 12.545349,-0.172373 c 0,-0.357974 0.657707,-0.675059 0.921199,-0.444117 0.35657,0.312522 0.130061,0.7747 -0.379673,0.7747 -0.297839,0 -0.541526,-0.148762 -0.541526,-0.330583 z m -5.856612,-2.754518 c 0,-1.370497 0.04475,-1.931154 0.09945,-1.245906 0.05469,0.685248 0.05469,1.806564 0,2.491812 -0.05469,0.685249 -0.09945,0.124591 -0.09945,-1.245906 z m -0.370935,-4.983625 c 0,-0.130523 0.114652,-0.237315 0.254783,-0.237315 0.140131,0 0.330087,0.106792 0.422124,0.237315 0.09204,0.130524 -0.02261,0.237316 -0.254783,0.237316 -0.232168,0 -0.422124,-0.106792 -0.422124,-0.237316 z m -1.526987,30.700096 1.256224,-0.15091 v -1.20474 c 0,-1.0296 -0.108246,-1.28056 -0.744598,-1.72634 -0.409529,-0.28688 -0.659018,-0.59728 -0.55442,-0.68978 0.104599,-0.0925 0.387449,0.005 0.628557,0.21604 0.241108,0.21133 0.847424,0.38423 1.347368,0.38423 0.499945,0 1.10626,-0.1729 1.347368,-0.38423 0.241108,-0.21132 0.523959,-0.30903 0.628557,-0.21712 0.104598,0.0919 -0.144891,0.41987 -0.554419,0.72881 -0.624521,0.47113 -0.744599,0.74998 -0.744599,1.72911 v 1.16738 l 1.346222,0.15652 c 1.442088,0.16767 4.625438,-0.0365 5.625924,-0.36078 0.547324,-0.17741 0.606608,-0.34876 0.583542,-1.68657 -0.01412,-0.819 -0.166425,-2.55701 -0.338454,-3.86225 l -0.312779,-2.373154 -0.94767,0.04945 c -5.364843,0.279972 -10.923665,0.324005 -12.297868,0.09742 -0.881502,-0.145349 -1.656655,-0.217008 -1.722561,-0.159243 -0.202074,0.177111 -0.853376,5.149977 -0.862725,6.587127 -0.0088,1.34531 -0.0033,1.3546 0.871172,1.47988 2.512509,0.35997 3.831191,0.41304 5.445159,0.21915 z m 3.368083,-35.543876 c 0.981704,-0.449512 2.121086,-1.532049 2.473885,-2.350461 0.158394,-0.367437 0.287988,-1.572277 0.287988,-2.677422 0,-2.070926 -0.420563,-3.438571 -1.171324,-3.809069 -0.225377,-0.111222 -1.716862,-0.148826 -3.314412,-0.08356 -2.774007,0.113321 -2.929278,0.147661 -3.452584,0.763577 -0.468451,0.551353 -0.542429,0.97431 -0.509908,2.915304 0.04571,2.728449 0.416987,3.544519 2.151412,4.728873 1.350166,0.921963 2.330662,1.064189 3.534943,0.512762 z M 45.475245,69.84219 c 0.263443,-0.06017 0.628973,-0.05621 0.812288,0.0088 0.183316,0.06501 -0.03223,0.114236 -0.478988,0.1094 -0.446759,-0.0048 -0.596744,-0.05802 -0.3333,-0.118194 z m -1.291277,-0.547489 c 0.09204,-0.130523 0.823097,-0.237315 1.624577,-0.237315 0.80148,0 1.53254,0.106792 1.624578,0.237315 0.105121,0.14908 -0.498914,0.237316 -1.624578,0.237316 -1.125664,0 -1.729699,-0.08824 -1.624577,-0.237316 z m 0.525198,-0.972416 c -0.209366,-0.296915 0.22151,-0.362844 1.370142,-0.209647 0.952476,0.127035 1.001442,0.162258 0.406144,0.292156 -0.85611,0.18681 -1.611108,0.15174 -1.776286,-0.08251 z m 0.490754,-1.994027 c 0.003,-0.522094 0.05845,-0.707735 0.123218,-0.412535 0.06477,0.2952 0.06231,0.722368 -0.0055,0.949262 -0.06777,0.226894 -0.12076,-0.01463 -0.117754,-0.536727 z m -1.765665,-0.02426 c -0.08158,-0.07151 -0.372727,-0.158878 -0.646982,-0.194158 -0.274255,-0.03528 -0.498646,-0.214152 -0.498646,-0.397495 0,-0.488454 1.847384,-0.575602 2.290123,-0.108034 0.191637,0.202385 0.272591,0.381322 0.179897,0.397637 -0.09269,0.01632 -0.259917,0.04465 -0.371607,0.06296 -0.11169,0.01831 -0.338382,0.108854 -0.50376,0.201199 -0.165378,0.09235 -0.367439,0.109396 -0.449025,0.03789 z m 4.155937,-0.272385 c -0.170304,-0.256275 -0.279136,-0.296348 -0.284217,-0.104652 -0.0045,0.170857 -0.135994,0.241444 -0.292144,0.156859 -0.477518,-0.258666 0.274352,-0.823482 1.096199,-0.823482 0.634985,0 1.741147,0.655441 1.251587,0.74161 -0.09269,0.01632 -0.280225,0.04301 -0.416735,0.05933 -0.136509,0.01632 -0.339581,0.109759 -0.451271,0.207651 -0.32357,0.2836 -0.606671,0.209233 -0.903419,-0.237316 z M 41.984799,64.9756 c -0.06462,-0.09134 0.138738,-0.286266 0.451896,-0.43316 0.683898,-0.320797 2.769194,-0.07063 2.622672,0.314638 -0.108445,0.285147 -2.88109,0.39203 -3.074568,0.118522 z m 4.604223,0.0023 c -0.238282,-0.337922 1.054007,-0.7074 1.955663,-0.559144 1.444197,0.237464 1.136701,0.722548 -0.459721,0.725224 -0.757463,0.0013 -1.430637,-0.07347 -1.495942,-0.16608 z m -5.565612,1.351325 c -0.03507,-0.456435 -0.167427,-0.738757 -0.294233,-0.627615 -0.216492,0.189748 -0.0047,1.457243 0.24347,1.457243 0.06298,0 0.08582,-0.373333 0.05076,-0.829628 z m 9.896699,0.05835 c 0.09825,-0.35894 0.08038,-0.652617 -0.0397,-0.652617 -0.12008,0 -0.248015,0.341478 -0.284299,0.758841 -0.07641,0.878888 0.06725,0.831789 0.323997,-0.106224 z m -5.175191,-4.580889 c 2.43657,0.0091 3.488476,0.102426 3.812697,0.338269 0.999189,0.726821 0.15056,-0.787138 -0.88091,-1.571549 -0.833105,-0.633559 -2.060507,-0.872727 -3.665226,-0.714196 -1.302858,0.128711 -2.32578,0.693648 -2.970761,1.640685 -0.535976,0.786981 -0.573586,1.436497 -0.04487,0.774897 0.351716,-0.440113 0.668058,-0.479612 3.74907,-0.468106 z"
         id="path1" /></g></g></svg>